<svg width="202" height="30" viewBox="0 0 202 30" fill="none" xmlns="http://www.w3.org/2000/svg">
<path d="M10.159 3.728C12.823 3.728 15.151 4.256 17.143 5.312C19.135 6.368 20.671 7.856 21.751 9.776C22.855 11.672 23.407 13.868 23.407 16.364C23.407 18.836 22.855 21.032 21.751 22.952C20.671 24.872 19.123 26.36 17.107 27.416C15.115 28.472 12.799 29 10.159 29H0.690984V3.728H10.159ZM9.76298 23.672C12.091 23.672 13.903 23.036 15.199 21.764C16.495 20.492 17.143 18.692 17.143 16.364C17.143 14.036 16.495 12.224 15.199 10.928C13.903 9.632 12.091 8.984 9.76298 8.984H6.84698V23.672H9.76298ZM33.0032 3.728V29H26.8472V3.728H33.0032ZM46.9324 3.728C49.5964 3.728 51.9244 4.256 53.9164 5.312C55.9084 6.368 57.4444 7.856 58.5244 9.776C59.6284 11.672 60.1804 13.868 60.1804 16.364C60.1804 18.836 59.6284 21.032 58.5244 22.952C57.4444 24.872 55.8964 26.36 53.8804 27.416C51.8884 28.472 49.5724 29 46.9324 29H37.4644V3.728H46.9324ZM46.5364 23.672C48.8644 23.672 50.6764 23.036 51.9724 21.764C53.2684 20.492 53.9164 18.692 53.9164 16.364C53.9164 14.036 53.2684 12.224 51.9724 10.928C50.6764 9.632 48.8644 8.984 46.5364 8.984H43.6204V23.672H46.5364ZM82.8807 11.864C82.8807 13.328 82.5447 14.672 81.8727 15.896C81.2007 17.096 80.1687 18.068 78.7767 18.812C77.3847 19.556 75.6567 19.928 73.5927 19.928H69.7767V29H63.6207V3.728H73.5927C75.6087 3.728 77.3127 4.076 78.7047 4.772C80.0967 5.468 81.1407 6.428 81.8367 7.652C82.5327 8.876 82.8807 10.28 82.8807 11.864ZM73.1247 15.032C74.3007 15.032 75.1767 14.756 75.7527 14.204C76.3287 13.652 76.6167 12.872 76.6167 11.864C76.6167 10.856 76.3287 10.076 75.7527 9.524C75.1767 8.972 74.3007 8.696 73.1247 8.696H69.7767V15.032H73.1247ZM98.0375 29.252C95.6615 29.252 93.4775 28.7 91.4855 27.596C89.5175 26.492 87.9455 24.956 86.7695 22.988C85.6175 20.996 85.0415 18.764 85.0415 16.292C85.0415 13.82 85.6175 11.6 86.7695 9.632C87.9455 7.664 89.5175 6.128 91.4855 5.024C93.4775 3.92 95.6615 3.368 98.0375 3.368C100.414 3.368 102.586 3.92 104.554 5.024C106.546 6.128 108.106 7.664 109.234 9.632C110.386 11.6 110.962 13.82 110.962 16.292C110.962 18.764 110.386 20.996 109.234 22.988C108.082 24.956 106.522 26.492 104.554 27.596C102.586 28.7 100.414 29.252 98.0375 29.252ZM98.0375 23.636C100.054 23.636 101.662 22.964 102.862 21.62C104.086 20.276 104.698 18.5 104.698 16.292C104.698 14.06 104.086 12.284 102.862 10.964C101.662 9.62 100.054 8.948 98.0375 8.948C95.9975 8.948 94.3655 9.608 93.1415 10.928C91.9415 12.248 91.3415 14.036 91.3415 16.292C91.3415 18.524 91.9415 20.312 93.1415 21.656C94.3655 22.976 95.9975 23.636 98.0375 23.636ZM126.338 29.252C123.962 29.252 121.778 28.7 119.786 27.596C117.818 26.492 116.246 24.956 115.07 22.988C113.918 20.996 113.342 18.764 113.342 16.292C113.342 13.82 113.918 11.6 115.07 9.632C116.246 7.664 117.818 6.128 119.786 5.024C121.778 3.92 123.962 3.368 126.338 3.368C128.714 3.368 130.886 3.92 132.854 5.024C134.846 6.128 136.406 7.664 137.534 9.632C138.686 11.6 139.262 13.82 139.262 16.292C139.262 18.764 138.686 20.996 137.534 22.988C136.382 24.956 134.822 26.492 132.854 27.596C130.886 28.7 128.714 29.252 126.338 29.252ZM126.338 23.636C128.354 23.636 129.962 22.964 131.162 21.62C132.386 20.276 132.998 18.5 132.998 16.292C132.998 14.06 132.386 12.284 131.162 10.964C129.962 9.62 128.354 8.948 126.338 8.948C124.298 8.948 122.666 9.608 121.442 10.928C120.242 12.248 119.642 14.036 119.642 16.292C119.642 18.524 120.242 20.312 121.442 21.656C122.666 22.976 124.298 23.636 126.338 23.636ZM148.843 24.248H156.907V29H142.687V3.728H148.843V24.248Z" fill="url(#paint0_linear_426_154)"/>
<path d="M176.295 3.728V8.66H165.999V13.988H173.703V18.776H165.999V29H159.843V3.728H176.295ZM182.627 6.824C181.547 6.824 180.659 6.512 179.963 5.888C179.291 5.24 178.955 4.448 178.955 3.512C178.955 2.552 179.291 1.76 179.963 1.136C180.659 0.487998 181.547 0.163998 182.627 0.163998C183.683 0.163998 184.547 0.487998 185.219 1.136C185.915 1.76 186.263 2.552 186.263 3.512C186.263 4.448 185.915 5.24 185.219 5.888C184.547 6.512 183.683 6.824 182.627 6.824ZM185.687 8.912V29H179.531V8.912H185.687ZM201.344 23.78V29H198.212C195.98 29 194.24 28.46 192.992 27.38C191.744 26.276 191.12 24.488 191.12 22.016V14.024H188.672V8.912H191.12V4.016H197.276V8.912H201.308V14.024H197.276V22.088C197.276 22.688 197.42 23.12 197.708 23.384C197.996 23.648 198.476 23.78 199.148 23.78H201.344Z" fill="#1D1617"/>
<defs>
<linearGradient id="paint0_linear_426_154" x1="373.833" y1="93" x2="-87.2895" y2="-39.9971" gradientUnits="userSpaceOnUse">
<stop stop-color="#CC8FED"/>
<stop offset="1" stop-color="#6B50F6"/>
</linearGradient>
</defs>
</svg>
